<svg width="160" height="119" viewBox="0 0 160 119" fill="none" xmlns="http://www.w3.org/2000/svg">
<path d="M1 118H42.5875H158.502L140.362 66.5L122.223 15H24.8907L1 118Z" fill="#B3261E" stroke="#0E0E0F" stroke-linejoin="round"/>
<path d="M79.2521 54L69.2837 118H159L105.669 15L79.2521 54Z" fill="white"/>
<path d="M58.977 0.584609C58.8666 0.510664 58.7314 0.483683 58.6011 0.509624C58.4708 0.535565 58.3561 0.612293 58.2825 0.722873L48.6409 15.202C48.5672 15.3127 48.5407 15.4482 48.5671 15.5785C48.5935 15.7088 48.6707 15.8232 48.7817 15.8965L54.9439 19.9634L37.0119 46.8333H36.4711C29.8427 46.8333 24.4243 52.2712 24.4243 58.9167L24.4243 58.918C24.4317 61.676 25.3796 64.3485 27.1106 66.4917C28.7987 68.5817 31.1326 70.0456 33.7412 70.6544L56.4373 104.75H36.4711C36.195 104.75 35.9711 104.974 35.9711 105.25V116.833C35.9711 117.109 36.195 117.333 36.4711 117.333H94.2051C94.4812 117.333 94.7051 117.109 94.7051 116.833V105.25C94.7051 104.974 94.4812 104.75 94.2051 104.75H71.3799L45.9243 66.3601C47.5917 64.243 48.507 61.6236 48.5179 58.9187V58.9167C48.5179 57.1988 48.1398 55.4834 47.4354 53.9223L64.6772 28.1939C64.3034 37.5931 69.9161 47.4564 79.2089 53.5433C79.4385 53.6936 79.7464 53.6309 79.8988 53.4026L105.533 15.0039C105.686 14.7745 105.624 14.4646 105.395 14.311C95.6226 7.75592 83.5591 6.49939 74.8883 11.2447L58.977 0.584609ZM102.167 29.5465C102.057 29.4704 101.92 29.4419 101.789 29.4675C101.657 29.493 101.541 29.5704 101.467 29.6824L91.8829 44.1615C91.7306 44.3916 91.7935 44.7015 92.0233 44.8541C96.1773 47.6118 101.915 46.5098 104.725 42.2817C107.54 38.0465 106.248 32.3574 102.167 29.5465ZM120.985 62.628C121.079 62.7229 121.208 62.7761 121.341 62.7758C121.475 62.7755 121.603 62.7217 121.697 62.6263L125.738 58.5142C125.93 58.3187 125.929 58.0049 125.736 57.8108L113.496 45.5324C113.402 45.4383 113.275 45.3854 113.142 45.3854C113.009 45.3854 112.882 45.4383 112.788 45.5324L108.746 49.5866C108.552 49.7814 108.552 50.0965 108.745 50.2917L120.985 62.628ZM128.845 30.4583C129.122 30.4583 129.345 30.2345 129.345 29.9583V24.1667C129.345 23.8905 129.122 23.6667 128.845 23.6667H111.525C111.249 23.6667 111.025 23.8905 111.025 24.1667V29.9583C111.025 30.2345 111.249 30.4583 111.525 30.4583H128.845ZM87.9317 70.5C87.9317 70.7761 88.1555 71 88.4317 71H94.2051C94.4812 71 94.7051 70.7761 94.7051 70.5V53.125C94.7051 52.8489 94.4812 52.625 94.2051 52.625H88.4317C88.1555 52.625 87.9317 52.8489 87.9317 53.125V70.5Z" fill="white" stroke="#0E0E0F" stroke-linejoin="round"/>
</svg>
